<?xml version="1.0" encoding="UTF-8"?>
<svg xmlns="http://www.w3.org/2000/svg" width="1200" height="520" viewBox="0 0 1200 520" role="img" aria-labelledby="title description">
  <title id="title">rstream adaptive streaming qualification</title>
  <desc id="description">Encoder, TWCC, and received bitrate across controlled network phases.</desc>
  <rect width="100%" height="100%" fill="#ffffff"/>
  <text x="82" y="28" font-size="20" font-weight="600" fill="#111827">Adaptive streaming response</text>
  <text x="1164" y="28" text-anchor="end" font-size="16" font-weight="700" fill="#047857">PASS</text>
  <rect x="94.5" y="48" width="118.7" height="400" fill="#f3f4f6"/><text x="102.5" y="68" font-size="13" fill="#4b5563">warmup</text><rect x="219.5" y="48" width="150" height="400" fill="#e5e7eb"/><text x="227.5" y="68" font-size="13" fill="#4b5563">baseline</text><rect x="376.2" y="48" width="275.1" height="400" fill="#f3f4f6"/><text x="384.2" y="68" font-size="13" fill="#4b5563">constrained</text><rect x="657.6" y="48" width="218.9" height="400" fill="#e5e7eb"/><text x="665.6" y="68" font-size="13" fill="#4b5563">impaired</text><rect x="882.7" y="48" width="275" height="400" fill="#f3f4f6"/><text x="890.7" y="68" font-size="13" fill="#4b5563">recovery</text>
  <line x1="82" y1="448" x2="1164" y2="448" stroke="#d1d5db"/><text x="70" y="452" text-anchor="end" font-size="12" fill="#6b7280">0 Mb/s</text><line x1="82" y1="368" x2="1164" y2="368" stroke="#d1d5db"/><text x="70" y="372" text-anchor="end" font-size="12" fill="#6b7280">2.2 Mb/s</text><line x1="82" y1="288" x2="1164" y2="288" stroke="#d1d5db"/><text x="70" y="292" text-anchor="end" font-size="12" fill="#6b7280">4.4 Mb/s</text><line x1="82" y1="208" x2="1164" y2="208" stroke="#d1d5db"/><text x="70" y="212" text-anchor="end" font-size="12" fill="#6b7280">6.6 Mb/s</text><line x1="82" y1="128" x2="1164" y2="128" stroke="#d1d5db"/><text x="70" y="132" text-anchor="end" font-size="12" fill="#6b7280">8.8 Mb/s</text><line x1="82" y1="48" x2="1164" y2="48" stroke="#d1d5db"/><text x="70" y="52" text-anchor="end" font-size="12" fill="#6b7280">10.9 Mb/s</text>
  <polyline fill="none" stroke="#2563eb" stroke-width="2.5" points="82,247.1 88.3,247.1 94.5,247.1 100.8,228.8 107,210.5 113.3,210.5 119.5,210.5 125.8,210.5 132,192.3 138.3,192.3 144.5,192.3 150.8,174 157,174 163.3,174 169.5,174 175.8,174 182,174 188.3,174 194.5,174 200.8,174 207,174 213.3,174 219.5,174 225.8,174 232,174 238.3,174 244.5,174 250.8,174 257.1,174 263.3,174 269.6,174 275.8,174 282.1,174 288.3,174 294.6,174 300.8,174 307.1,174 313.3,174 319.6,174 325.8,174 332.1,174 338.3,174 344.6,174 350.8,174 357.1,174 363.3,174 369.6,174 376.2,174 382.5,294.6 388.7,294.6 395,294.6 401.2,276.3 407.5,323.8 413.7,356.7 420,356.7 426.2,356.7 432.5,356.7 438.7,338.4 445,374.9 451.2,374.9 457.5,374.9 463.7,374.9 470,374.9 476.2,374.9 482.5,374.9 488.7,374.9 495,364 501.2,364 507.5,364 513.7,364 520,364 526.3,374.9 532.5,374.9 538.8,374.9 545,374.9 551.3,364 557.5,364 563.8,374.9 570,374.9 576.3,374.9 582.5,374.9 588.8,374.9 595,374.9 601.3,374.9 607.5,374.9 613.8,360.3 620,374.9 626.3,374.9 632.6,374.9 638.8,374.9 645.1,374.9 651.3,374.9 657.6,374.9 663.8,374.9 670.1,374.9 676.3,374.9 682.6,374.9 688.8,374.9 695.1,374.9 701.3,374.9 707.6,374.9 713.8,374.9 720.1,374.9 726.3,374.9 732.6,374.9 738.9,374.9 745.1,374.9 751.3,374.9 757.6,374.9 763.9,374.9 770.1,374.9 776.4,374.9 782.6,374.9 788.9,374.9 795.1,374.9 801.4,374.9 807.6,374.9 813.9,374.9 820.1,374.9 826.4,374.9 832.7,374.9 838.9,374.9 845.2,374.9 851.4,374.9 857.7,374.9 863.9,374.9 870.2,374.9 876.5,374.9 882.7,374.9 889,374.9 895.2,374.9 901.5,374.9 907.7,374.9 914,374.9 920.2,364 926.5,364 932.7,353 939,353 945.2,338.4 951.5,338.4 957.7,338.4 964,338.4 970.2,320.1 976.5,320.1 982.7,320.1 989,301.9 995.2,301.9 1001.5,301.9 1007.7,283.6 1014,283.6 1020.2,265.3 1026.5,265.3 1032.7,265.3 1039,247.1 1045.3,247.1 1051.5,228.8 1057.7,228.8 1064,228.8 1070.3,228.8 1076.5,210.5 1082.8,210.5 1089,210.5 1095.3,192.3 1101.5,192.3 1107.8,192.3 1114,192.3 1120.3,174 1126.5,174 1132.7,174 1139,174 1145.2,174 1151.5,174 1157.7,174 1164,174"/><line x1="82" y1="492" x2="110" y2="492" stroke="#2563eb" stroke-width="3"/><text x="118" y="497" font-size="14" fill="#111827">Encoder target</text><polyline fill="none" stroke="#d97706" stroke-width="2.5" points="82,203.2 88.3,184.9 94.5,163 100.8,155.7 107,155.7 113.3,155.7 119.5,155.7 125.8,155.7 132,155.7 138.3,155.7 144.5,155.7 150.8,155.7 157,155.7 163.3,155.7 169.5,155.7 175.8,155.7 182,155.7 188.3,155.7 194.5,155.7 200.8,155.7 207,155.7 213.3,155.7 219.5,155.7 225.8,155.7 232,155.7 238.3,155.7 244.5,155.7 250.8,155.7 257.1,155.7 263.3,155.7 269.6,155.7 275.8,155.7 282.1,155.7 288.3,155.7 294.6,155.7 300.8,155.7 307.1,155.7 313.3,155.7 319.6,155.7 325.8,155.7 332.1,155.7 338.3,155.7 344.6,155.7 350.8,155.7 357.1,155.7 363.3,155.7 369.6,155.7 376.2,155.7 382.5,294.6 388.7,283.6 395,272.6 401.2,258 407.5,320.1 413.7,356.7 420,353 426.2,345.7 432.5,338.4 438.7,334.7 445,374.9 451.2,367.6 457.5,364 463.7,374.9 470,371.3 476.2,374.9 482.5,371.3 488.7,367.6 495,364 501.2,360.3 507.5,353 513.7,345.7 520,338.4 526.3,374.9 532.5,367.6 538.8,364 545,356.7 551.3,349.4 557.5,342 563.8,374.9 570,367.6 576.3,374.9 582.5,371.3 588.8,371.3 595,374.9 601.3,367.6 607.5,360.3 613.8,353 620,374.9 626.3,371.3 632.6,367.6 638.8,374.9 645.1,371.3 651.3,364 657.6,360.3 663.8,374.9 670.1,371.3 676.3,371.3 682.6,364 688.8,353 695.1,353 701.3,349.4 707.6,345.7 713.8,334.7 720.1,349.4 726.3,374.9 732.6,371.3 738.9,367.6 745.1,360.3 751.3,374.9 757.6,371.3 763.9,374.9 770.1,371.3 776.4,374.9 782.6,367.6 788.9,374.9 795.1,374.9 801.4,371.3 807.6,367.6 813.9,364 820.1,371.3 826.4,364 832.7,356.7 838.9,374.9 845.2,374.9 851.4,371.3 857.7,364 863.9,356.7 870.2,345.7 876.5,342 882.7,356.7 889,349.4 895.2,338.4 901.5,323.8 907.7,312.8 914,301.9 920.2,290.9 926.5,279.9 932.7,265.3 939,250.7 945.2,236.1 951.5,217.8 957.7,199.6 964,181.3 970.2,155.7 976.5,155.7 982.7,155.7 989,155.7 995.2,155.7 1001.5,155.7 1007.7,155.7 1014,155.7 1020.2,155.7 1026.5,155.7 1032.7,155.7 1039,155.7 1045.3,155.7 1051.5,155.7 1057.7,155.7 1064,155.7 1070.3,155.7 1076.5,155.7 1082.8,155.7 1089,155.7 1095.3,155.7 1101.5,155.7 1107.8,155.7 1114,155.7 1120.3,155.7 1126.5,155.7 1132.7,155.7 1139,155.7 1145.2,155.7 1151.5,155.7 1157.7,155.7 1164,155.7"/><line x1="272" y1="492" x2="300" y2="492" stroke="#d97706" stroke-width="3"/><text x="308" y="497" font-size="14" fill="#111827">TWCC target</text><polyline fill="none" stroke="#059669" stroke-width="2.5" points="88.3,166.7 94.5,169.9 100.8,155.1 107,135.6 113.3,128.6 119.5,115.3 125.8,127.9 132,108.7 138.3,103.3 144.5,87.3 150.8,81 157,61 163.3,64.9 169.5,67.8 175.8,72 182,64 188.3,59.3 194.5,62.8 200.8,69.2 207,67.2 213.3,72.8 219.5,61.4 225.8,69.7 232,66.1 238.3,69.5 244.5,63.1 250.8,71.4 257.1,60 263.3,71.6 269.6,58.4 275.8,72.2 282.1,62.2 288.3,73 294.6,48 300.8,75.8 307.1,59.6 313.3,72.4 319.6,59.7 325.8,64.9 332.1,57.8 338.3,72.3 344.6,60.8 350.8,73.6 357.1,56.7 363.3,80.1 369.6,53.2 376.2,92.8 382.5,208.7 388.7,239.4 395,231.7 401.2,235.1 407.5,275 413.7,292.9 420,306.1 426.2,317.9 432.5,306.2 438.7,295.5 445,335.4 451.2,337.2 457.5,336.5 463.7,339.2 470,341.3 476.2,340.6 482.5,335.5 488.7,339.4 495,337.3 501.2,323.5 507.5,323.1 513.7,326.5 520,322.4 526.3,329.8 532.5,335.5 538.8,342.6 545,335.1 551.3,325.5 557.5,326.7 563.8,339.3 570,336.4 576.3,340.8 582.5,339.5 588.8,341.4 595,339.5 601.3,335.7 607.5,329.1 613.8,319.7 620,332.3 626.3,339.7 632.6,336.8 638.8,343.4 645.1,334.8 651.3,340.1 657.6,338.5 663.8,341.4 670.1,338.9 676.3,336.6 682.6,347.2 688.8,343.8 695.1,337 701.3,341.4 707.6,336.1 713.8,344.9 720.1,337.4 726.3,341.5 732.6,338.6 738.9,342.8 745.1,341.9 751.3,338.5 757.6,337.6 763.9,340.2 770.1,339.5 776.4,345 782.6,338.4 788.9,338.9 795.1,341.2 801.4,341.2 807.6,339 813.9,343.4 820.1,340.4 826.4,338.9 832.7,339.1 838.9,343.1 845.2,342.8 851.4,333.6 857.7,339.8 863.9,339.2 870.2,338.5 876.5,321.8 882.7,337.5 889,341.9 895.2,338.4 901.5,339.2 907.7,331.5 914,342.3 920.2,325.3 926.5,326.8 932.7,307.4 939,307.1 945.2,285.9 951.5,285.8 957.7,288.8 964,281.6 970.2,276.2 976.5,262.6 982.7,268.6 989,257.7 995.2,248.9 1001.5,233.7 1007.7,228.3 1014,205.6 1020.2,203.5 1026.5,189.2 1032.7,204.2 1039,189.5 1045.3,176.8 1051.5,165.2 1057.7,154.3 1064,140.2 1070.3,155.5 1076.5,139.9 1082.8,125.4 1089,109.7 1095.3,101.2 1101.5,97.5 1107.8,104.8 1114,82.1 1120.3,88.1 1126.5,63.9 1132.7,70.6 1139,62.4 1145.2,72.7 1151.5,69.5 1157.7,81.7 1164,66.3"/><line x1="462" y1="492" x2="490" y2="492" stroke="#059669" stroke-width="3"/><text x="498" y="497" font-size="14" fill="#111827">Received</text>
  <line x1="82" y1="448" x2="1164" y2="448" stroke="#111827"/>
  <text x="600" y="472" text-anchor="middle" font-size="13" fill="#6b7280">Elapsed time; link constraints are shown as phase bands</text>
</svg>
