<?xml version="1.0" encoding="UTF-8"?>
<svg xmlns="http://www.w3.org/2000/svg" width="960" height="630" viewBox="0 0 960 630" role="img" aria-labelledby="title description" style="font-family:system-ui,sans-serif">
  <title id="title">Adaptive sender response to controlled link changes</title>
  <desc id="description">Measured encoder, TWCC, receive, and pacer rates are plotted against the independently configured traffic-control schedule, separating media and wire budgets.</desc>
  <rect width="100%" height="100%" fill="#ffffff"/>
  <text x="78" y="34" font-size="24" font-weight="600" fill="#111827">Adaptive sender response to controlled link changes</text>
  <text x="78" y="62" font-size="14" fill="#4b5563">Capacity transitions are isolated at 0ms delay, 0ms jitter, and 0% injected loss</text>
  <text x="932" y="28" text-anchor="end" font-size="16" font-weight="700" fill="#047857">PASS</text>
  <rect x="90.7" y="110" width="79.9" height="370" fill="#f3f4f6"/><text x="97.7" y="90" font-size="15" font-weight="600" fill="#374151">warmup</text><text x="97.7" y="107" font-size="13" fill="#6b7280">unshaped</text><rect x="174.8" y="110" width="100.9" height="370" fill="#e5e7eb"/><text x="181.8" y="90" font-size="15" font-weight="600" fill="#374151">baseline</text><text x="181.8" y="107" font-size="13" fill="#6b7280">unshaped</text><rect x="279.9" y="110" width="122" height="370" fill="#f3f4f6"/><text x="286.9" y="90" font-size="15" font-weight="600" fill="#374151">settling</text><text x="286.9" y="107" font-size="13" fill="#6b7280">controlled link</text><rect x="406.1" y="110" width="180.9" height="370" fill="#e5e7eb"/><text x="413.1" y="90" font-size="15" font-weight="600" fill="#374151">constrained</text><text x="413.1" y="107" font-size="13" fill="#6b7280">controlled link</text><rect x="591.2" y="110" width="143.1" height="370" fill="#f3f4f6"/><text x="598.2" y="90" font-size="15" font-weight="600" fill="#374151">impaired</text><text x="598.2" y="107" font-size="13" fill="#6b7280">controlled link</text><rect x="738.5" y="110" width="185.1" height="370" fill="#e5e7eb"/><text x="745.5" y="90" font-size="15" font-weight="600" fill="#374151">recovery</text><text x="745.5" y="107" font-size="13" fill="#6b7280">controlled link</text>
  <line x1="78" y1="480" x2="932" y2="480" stroke="#d1d5db"/><text x="66" y="485" text-anchor="end" font-size="14" fill="#6b7280">0 Mb/s</text><line x1="78" y1="387.5" x2="932" y2="387.5" stroke="#d1d5db"/><text x="66" y="392.5" text-anchor="end" font-size="14" fill="#6b7280">8 Mb/s</text><line x1="78" y1="295" x2="932" y2="295" stroke="#d1d5db"/><text x="66" y="300" text-anchor="end" font-size="14" fill="#6b7280">16 Mb/s</text><line x1="78" y1="202.5" x2="932" y2="202.5" stroke="#d1d5db"/><text x="66" y="207.5" text-anchor="end" font-size="14" fill="#6b7280">24 Mb/s</text><line x1="78" y1="110" x2="932" y2="110" stroke="#d1d5db"/><text x="66" y="115" text-anchor="end" font-size="14" fill="#6b7280">32 Mb/s</text>
  <polyline fill="none" stroke="#2563eb" stroke-width="2.5" stroke-dasharray="" points="78,402.5 82.2,402.5 86.4,402.5 90.7,402.5 94.9,402.5 99.1,387.5 103.3,387.5 107.5,387.5 111.7,387.5 115.9,387.5 120.1,387.5 124.3,387.5 128.5,417.6 132.7,417.6 136.9,417.6 141.1,395.6 145.3,395.6 149.5,395.6 153.7,395.6 157.9,395.6 162.1,395.6 166.4,395.6 170.6,395.6 174.8,395.6 179,395.6 183.2,395.6 187.4,395.6 191.6,395.6 195.8,395.6 200,395.6 204.2,395.6 208.4,395.6 212.6,395.6 216.8,395.6 221,395.6 225.3,395.6 229.5,395.6 233.7,395.6 237.9,395.6 242.1,395.6 246.3,395.6 250.5,395.6 254.7,395.6 258.9,395.6 263.1,395.6 267.3,395.6 271.5,395.6 275.7,395.6 279.9,395.6 284.2,395.6 288.4,395.6 292.6,395.6 296.8,395.6 301,395.6 305.2,395.6 309.4,395.6 313.6,395.6 317.8,395.6 322,395.6 326.2,395.6 330.4,395.6 334.6,395.6 338.8,395.6 343,395.6 347.2,395.6 351.4,395.6 355.6,395.6 359.8,395.6 364,395.6 368.3,395.6 372.5,395.6 376.7,395.6 380.9,395.6 385.1,395.6 389.3,395.6 393.5,395.6 397.7,395.6 401.9,395.6 406.1,428 410.3,428 414.5,428 418.7,419.9 423,419.9 427.2,410.6 431.4,410.6 435.6,400.2 439.8,400.2 444,400.2 448.2,400.2 452.4,391 456.6,391 460.8,410.6 465,448.8 469.2,456.9 473.4,456.9 477.6,456.9 481.8,456.9 486,456.9 490.2,456.9 494.4,456.9 498.6,456.9 502.9,456.9 507.1,456.9 511.3,456.9 515.5,456.9 519.7,456.9 523.9,456.9 528.1,456.9 532.3,456.9 536.5,456.9 540.7,456.9 544.9,456.9 549.1,456.9 553.3,456.9 557.6,456.9 561.8,456.9 566,456.9 570.2,454.6 574.4,454.6 578.6,454.6 582.8,454.6 587,454.6 591.2,454.6 595.4,456.9 599.6,456.9 603.8,456.9 608,456.9 612.2,456.9 616.5,456.9 620.7,456.9 624.9,456.9 629.1,456.9 633.3,456.9 637.5,456.9 641.7,456.9 645.9,456.9 650.1,456.9 654.3,456.9 658.5,456.9 662.7,456.9 666.9,456.9 671.2,456.9 675.4,456.9 679.6,456.9 683.8,456.9 688,456.9 692.2,456.9 696.4,456.9 700.6,456.9 704.8,456.9 709,456.9 713.2,456.9 717.4,456.9 721.6,456.9 725.8,456.9 730.1,456.9 734.3,456.9 738.5,456.9 742.7,456.9 746.9,456.9 751.1,456.9 755.3,456.9 759.5,456.9 763.7,456.9 767.9,456.9 772.1,456.9 776.3,456.9 780.5,451.1 784.7,451.1 789,451.1 793.2,451.1 797.4,440.7 801.6,440.7 805.8,434.9 810,434.9 814.2,434.9 818.4,418.7 822.6,418.7 826.8,418.7 831,418.7 835.2,396.8 839.5,396.8 843.7,387.5 847.9,387.5 852.1,387.5 856.3,387.5 860.5,387.5 864.7,387.5 868.9,387.5 873.1,387.5 877.3,387.5 881.5,387.5 885.7,414.1 889.9,414.1 894.1,414.1 898.3,414.1 902.5,414.1 906.7,414.1 911,414.1 915.2,414.1 919.4,414.1 923.6,414.1 927.8,414.1 932,414.1"/><line x1="78" y1="594" x2="102" y2="594" stroke="#2563eb" stroke-width="3"/><text x="109" y="600" font-size="14" fill="#111827">Encoder media</text><polyline fill="none" stroke="#d97706" stroke-width="2.5" stroke-dasharray="" points="78,402.5 82.2,396.8 86.4,389.8 90.7,387.5 94.9,387.5 99.1,387.5 103.3,387.5 107.5,387.5 111.7,387.5 115.9,387.5 120.1,387.5 124.3,387.5 128.5,407.2 132.7,401.4 136.9,395.6 141.1,389.8 145.3,387.5 149.5,387.5 153.7,387.5 157.9,387.5 162.1,387.5 166.4,387.5 170.6,387.5 174.8,387.5 179,387.5 183.2,387.5 187.4,387.5 191.6,387.5 195.8,387.5 200,387.5 204.2,387.5 208.4,387.5 212.6,387.5 216.8,387.5 221,387.5 225.3,387.5 229.5,387.5 233.7,387.5 237.9,387.5 242.1,387.5 246.3,387.5 250.5,387.5 254.7,387.5 258.9,387.5 263.1,387.5 267.3,387.5 271.5,387.5 275.7,387.5 279.9,387.5 284.2,387.5 288.4,387.5 292.6,387.5 296.8,387.5 301,387.5 305.2,387.5 309.4,387.5 313.6,387.5 317.8,387.5 322,387.5 326.2,387.5 330.4,387.5 334.6,387.5 338.8,387.5 343,387.5 347.2,387.5 351.4,387.5 355.6,387.5 359.8,387.5 364,387.5 368.3,387.5 372.5,387.5 376.7,387.5 380.9,387.5 385.1,387.5 389.3,387.5 393.5,387.5 397.7,387.5 401.9,387.5 406.1,428 410.3,424.5 414.5,419.9 418.7,415.3 423,410.6 427.2,406 431.4,400.2 435.6,393.3 439.8,391 444,392.1 448.2,391 452.4,391 456.6,387.5 460.8,410.6 465,448.8 469.2,456.9 473.4,456.9 477.6,456.9 481.8,456.9 486,456.9 490.2,456.9 494.4,456.9 498.6,456.9 502.9,456.9 507.1,456.9 511.3,456.9 515.5,456.9 519.7,456.9 523.9,456.9 528.1,456.9 532.3,456.9 536.5,456.9 540.7,453.4 544.9,456.9 549.1,456.9 553.3,455.7 557.6,455.7 561.8,454.6 566,454.6 570.2,454.6 574.4,453.4 578.6,453.4 582.8,452.3 587,452.3 591.2,452.3 595.4,456.9 599.6,456.9 603.8,456.9 608,456.9 612.2,456.9 616.5,456.9 620.7,456.9 624.9,455.7 629.1,456.9 633.3,456.9 637.5,456.9 641.7,456.9 645.9,456.9 650.1,456.9 654.3,456.9 658.5,456.9 662.7,456.9 666.9,456.9 671.2,456.9 675.4,456.9 679.6,456.9 683.8,456.9 688,456.9 692.2,456.9 696.4,456.9 700.6,456.9 704.8,456.9 709,456.9 713.2,456.9 717.4,456.9 721.6,456.9 725.8,456.9 730.1,456.9 734.3,456.9 738.5,456.9 742.7,456.9 746.9,456.9 751.1,451.1 755.3,449.9 759.5,449.9 763.7,449.9 767.9,451.1 772.1,451.1 776.3,451.1 780.5,448.8 784.7,446.5 789,444.2 793.2,440.7 797.4,438.4 801.6,434.9 805.8,431.4 810,428 814.2,418.7 818.4,414.1 822.6,409.5 826.8,403.7 831,396.8 835.2,391 839.5,387.5 843.7,387.5 847.9,387.5 852.1,387.5 856.3,387.5 860.5,387.5 864.7,387.5 868.9,387.5 873.1,387.5 877.3,387.5 881.5,387.5 885.7,414.1 889.9,412.9 894.1,412.9 898.3,412.9 902.5,411.8 906.7,411.8 911,411.8 915.2,411.8 919.4,411.8 923.6,411.8 927.8,411.8 932,411.8"/><line x1="248" y1="594" x2="272" y2="594" stroke="#d97706" stroke-width="3"/><text x="279" y="600" font-size="14" fill="#111827">TWCC media</text><polyline fill="none" stroke="#059669" stroke-width="2.5" stroke-dasharray="" points="82.2,396.2 86.4,400.8 90.7,393.4 94.9,400.2 99.1,379.3 103.3,383.5 107.5,377.2 111.7,383.7 115.9,377.9 120.1,373.9 124.3,376.9 128.5,408.3 132.7,411.1 136.9,414 141.1,387.8 145.3,390.4 149.5,386 153.7,390.8 157.9,386.9 162.1,393 166.4,387.9 170.6,391.8 174.8,384.4 179,390.3 183.2,388.3 187.4,393.6 191.6,386.7 195.8,391.6 200,385.2 204.2,391.2 208.4,384.5 212.6,390.2 216.8,389.1 221,391.7 225.3,387.7 229.5,392.9 233.7,385.6 237.9,394.2 242.1,389 246.3,392.8 250.5,385.6 254.7,392.9 258.9,385.6 263.1,393.5 267.3,386 271.5,393.7 275.7,385.1 279.9,393.4 284.2,382.1 288.4,391.1 292.6,387.6 296.8,393.4 301,388.4 305.2,392.2 309.4,383.8 313.6,393 317.8,385.2 322,392.8 326.2,389.5 330.4,393.7 334.6,384.7 338.8,392.2 343,389.8 347.2,393.3 351.4,385.8 355.6,393.2 359.8,388.5 364,392.1 368.3,382.7 372.5,393.5 376.7,387 380.9,393.1 385.1,386.7 389.3,391.2 393.5,386.5 397.7,392.2 401.9,389.6 406.1,410.1 410.3,425 414.5,423.2 418.7,417.8 423,413.7 427.2,407.9 431.4,403.7 435.6,393.9 439.8,396.8 444,390.9 448.2,395.9 452.4,393.5 456.6,394.8 460.8,407 465,412.7 469.2,454.4 473.4,452.1 477.6,453.1 481.8,451.4 486,452.6 490.2,450.5 494.4,452 498.6,452 502.9,451.5 507.1,450.9 511.3,450.9 515.5,450.7 519.7,451.8 523.9,451.3 528.1,451.5 532.3,451 536.5,451.1 540.7,450.9 544.9,450.4 549.1,451.6 553.3,451.3 557.6,451.1 561.8,450.3 566,458.8 570.2,442.3 574.4,449.5 578.6,449.3 582.8,448.9 587,449.3 591.2,452.1 595.4,451.7 599.6,451.2 603.8,451.1 608,452.7 612.2,451.4 616.5,453.3 620.7,450.4 624.9,452 629.1,450.7 633.3,452.2 637.5,451.4 641.7,452.2 645.9,450.4 650.1,451.3 654.3,452.6 658.5,450.9 662.7,451.3 666.9,451 671.2,451.8 675.4,453.1 679.6,449.8 683.8,452.8 688,450.8 692.2,452.5 696.4,451.3 700.6,451.4 704.8,452.8 709,452.1 713.2,450.8 717.4,452.1 721.6,451.5 725.8,452.6 730.1,450.6 734.3,452.4 738.5,448.7 742.7,448.2 746.9,450.2 751.1,452.7 755.3,452 759.5,451.4 763.7,451.4 767.9,451 772.1,452.1 776.3,447.2 780.5,446.3 784.7,445.2 789,446.6 793.2,439.3 797.4,436.2 801.6,431.3 805.8,432.4 810,429.3 814.2,432 818.4,417.3 822.6,417 826.8,415.8 831,416.9 835.2,394.2 839.5,392.3 843.7,381.5 847.9,381.9 852.1,372.1 856.3,381.3 860.5,375 864.7,381.1 868.9,372.2 873.1,381.1 877.3,379.6 881.5,385.1 885.7,392.4 889.9,406.7 894.1,411.2 898.3,407.5 902.5,412.5 906.7,406.8 911,413 915.2,406.8 919.4,411.4 923.6,406.7 927.8,412.9 932,407.5"/><line x1="418" y1="594" x2="442" y2="594" stroke="#059669" stroke-width="3"/><text x="449" y="600" font-size="14" fill="#111827">Received media</text><polyline fill="none" stroke="#7c3aed" stroke-width="2.5" stroke-dasharray="" points="78,386.8 82.2,380.2 86.4,372.2 90.7,369 94.9,369 99.1,369 103.3,369 107.5,369 111.7,369 115.9,369 120.1,369 124.3,369 128.5,393.2 132.7,386.3 136.9,378.9 141.1,371.5 145.3,369 149.5,369 153.7,369 157.9,369 162.1,369 166.4,369 170.6,369 174.8,369 179,369 183.2,369 187.4,369 191.6,369 195.8,369 200,369 204.2,369 208.4,369 212.6,369 216.8,369 221,369 225.3,369 229.5,369 233.7,369 237.9,369 242.1,369 246.3,369 250.5,369 254.7,369 258.9,369 263.1,369 267.3,369 271.5,369 275.7,369 279.9,369 284.2,369 288.4,369 292.6,369 296.8,369 301,369 305.2,369 309.4,369 313.6,369 317.8,369 322,369 326.2,369 330.4,369 334.6,369 338.8,369 343,369 347.2,369 351.4,369 355.6,369 359.8,369 364,369 368.3,369 372.5,369 376.7,369 380.9,369 385.1,369 389.3,369 393.5,369 397.7,369 401.9,369 406.1,417.5 410.3,413.5 414.5,408.2 418.7,402.6 423,396.8 427.2,390.6 431.4,383.6 435.6,376.6 439.8,373.6 444,375.1 448.2,372.8 452.4,372.8 456.6,369 460.8,396.2 465,442.1 469.2,452.3 473.4,452.3 477.6,452.3 481.8,452.3 486,452.3 490.2,452.3 494.4,452.3 498.6,452.3 502.9,452.3 507.1,452.3 511.3,452.3 515.5,452.3 519.7,452.3 523.9,452.3 528.1,452.3 532.3,452.3 536.5,452.3 540.7,448.1 544.9,452.2 549.1,451.6 553.3,451 557.6,450.5 561.8,449.9 566,449.4 570.2,449 574.4,447.9 578.6,447.5 582.8,447 587,446.5 591.2,446 595.4,452.3 599.6,452.3 603.8,452.3 608,451.8 612.2,452.3 616.5,452 620.7,451.6 624.9,451.4 629.1,452.3 633.3,452.3 637.5,452.3 641.7,452.3 645.9,452.3 650.1,452.3 654.3,452.3 658.5,452.3 662.7,452.3 666.9,452.3 671.2,452.3 675.4,452.3 679.6,452.3 683.8,452.3 688,452.3 692.2,452.3 696.4,452.3 700.6,452.3 704.8,452.3 709,452.3 713.2,452.3 717.4,452.3 721.6,452.3 725.8,452.3 730.1,452.3 734.3,452.3 738.5,452.3 742.7,452.3 746.9,452.3 751.1,445.7 755.3,444 759.5,444.5 763.7,443.4 767.9,445.1 772.1,445.1 776.3,444.8 780.5,442.8 784.7,439.9 789,436.7 793.2,433.3 797.4,429.5 801.6,425.8 805.8,421.8 810,417.2 814.2,406.9 818.4,401.1 822.6,394.8 826.8,388 831,380.7 835.2,372.9 839.5,369 843.7,369 847.9,369 852.1,369 856.3,369 860.5,369 864.7,369 868.9,369 873.1,369 877.3,369 881.5,369 885.7,400.3 889.9,399.9 894.1,399.5 898.3,399.1 902.5,398.7 906.7,398.3 911,397.9 915.2,397.5 919.4,398 923.6,398.3 927.8,397.9 932,398.7"/><line x1="588" y1="594" x2="612" y2="594" stroke="#7c3aed" stroke-width="3"/><text x="619" y="600" font-size="14" fill="#111827">Pacer wire</text>
  <polyline fill="none" stroke="#be185d" stroke-width="3" stroke-dasharray="8 6" points="276.3,110 402.3,110 402.3,295 423.3,295 423.3,341.3 444.1,341.3 444.1,387.5 465.3,387.5 465.3,433.8 758.1,433.8 758.1,110 932,110"/><line x1="758" y1="594" x2="782" y2="594" stroke="#be185d" stroke-width="3" stroke-dasharray="8 6"/><text x="789" y="600" font-size="14" fill="#111827">Link capacity</text>
  <line x1="78" y1="480" x2="932" y2="480" stroke="#111827"/>
  <line x1="78" y1="480" x2="78" y2="487" stroke="#111827"/><text x="78" y="505" text-anchor="middle" font-size="13" fill="#4b5563">0 s</text><line x1="248.8" y1="480" x2="248.8" y2="487" stroke="#111827"/><text x="248.8" y="505" text-anchor="middle" font-size="13" fill="#4b5563">41 s</text><line x1="419.6" y1="480" x2="419.6" y2="487" stroke="#111827"/><text x="419.6" y="505" text-anchor="middle" font-size="13" fill="#4b5563">82 s</text><line x1="590.4" y1="480" x2="590.4" y2="487" stroke="#111827"/><text x="590.4" y="505" text-anchor="middle" font-size="13" fill="#4b5563">122 s</text><line x1="761.2" y1="480" x2="761.2" y2="487" stroke="#111827"/><text x="761.2" y="505" text-anchor="middle" font-size="13" fill="#4b5563">163 s</text><line x1="932" y1="480" x2="932" y2="487" stroke="#111827"/><text x="932" y="505" text-anchor="middle" font-size="13" fill="#4b5563">204 s</text>
  <text x="480" y="548" text-anchor="middle" font-size="14" fill="#6b7280">Media rates · encoder, TWCC, received · wire rates · pacer, configured capacity</text>
</svg>
