<?xml version="1.0" encoding="UTF-8"?>
<svg xmlns="http://www.w3.org/2000/svg" width="960" height="840" viewBox="0 0 960 840" role="img" aria-labelledby="title description" style="font-family:system-ui,sans-serif">
<title id="title">Transport latency, loss, and repair</title><desc id="description">RTT, sender queue residence, playback buffering, NACK, RTX, FlexFEC, and TWCC loss aligned with the controlled path.</desc>
<rect width="100%" height="100%" fill="#ffffff"/>
  <text x="28" y="36" font-size="24" font-weight="650" fill="#111827">Transport latency, loss, and repair</text>
<text x="932" y="34" text-anchor="end" font-size="16" font-weight="700" fill="#047857">PASS</text>
<rect x="167.5" y="145" width="72.6" height="635" fill="#f8fafc"/><text x="173.5" y="127" font-size="14" font-weight="600" fill="#111827">warmup</text><rect x="244" y="145" width="91.7" height="635" fill="#eef2f7"/><text x="250" y="127" font-size="14" font-weight="600" fill="#111827">baseline</text><rect x="339.5" y="145" width="110.8" height="635" fill="#f8fafc"/><text x="345.5" y="127" font-size="14" font-weight="600" fill="#111827">settling</text><rect x="454.1" y="145" width="164.4" height="635" fill="#eef2f7"/><text x="460.1" y="127" font-size="14" font-weight="600" fill="#111827">constrained</text><rect x="622.3" y="145" width="130" height="635" fill="#f8fafc"/><text x="628.3" y="127" font-size="14" font-weight="600" fill="#111827">impaired</text><rect x="756.2" y="145" width="168.2" height="635" fill="#eef2f7"/><text x="762.2" y="127" font-size="14" font-weight="600" fill="#111827">recovery</text><line x1="156" y1="335" x2="932" y2="335" stroke="#cbd5e1"/><text x="144" y="163" text-anchor="end" font-size="14" font-weight="600" fill="#111827">Latency / buffering</text><text x="144" y="183" text-anchor="end" font-size="13" fill="#64748b">ms</text><text x="144" y="203" text-anchor="end" font-size="12" fill="#64748b">0–677 ms</text><line x1="156" y1="166.7" x2="932" y2="166.7" stroke="#dc2626" stroke-width="1.5" stroke-dasharray="7 6"/><text x="927" y="161.7" text-anchor="end" font-size="12" fill="#dc2626">600 ms shaped RTT limit</text><line x1="156" y1="250.8" x2="932" y2="250.8" stroke="#059669" stroke-width="1.5" stroke-dasharray="7 6"/><text x="927" y="245.8" text-anchor="end" font-size="12" fill="#059669">300 ms phase-average buffer limit</text><line x1="156" y1="264.9" x2="932" y2="264.9" stroke="#7c3aed" stroke-width="1.5" stroke-dasharray="7 6"/><text x="927" y="259.9" text-anchor="end" font-size="12" fill="#7c3aed">250 ms target limit</text><polyline fill="none" stroke="#2563eb" stroke-width="2.5" stroke-dasharray="" points="156,305 159.8,305 163.7,305 167.5,305 171.3,305 175.2,305 179,305 182.8,305 186.6,305 190.4,305 194.3,305 198.1,305 201.9,305 205.7,305 209.5,305 213.4,305 217.2,305 221,305 224.8,304.7 228.6,304.7 232.5,305 236.3,305 240.1,305 244,305 247.8,305 251.6,305 255.4,305 259.2,305 263.1,305 266.9,305 270.7,305 274.5,305 278.3,305 282.2,305 286,305 289.8,305 293.6,305 297.5,305 301.3,305 305.1,305 308.9,305 312.7,305 316.6,305 320.4,305 324.2,305 328,305 331.8,305 335.7,304.7 339.5,304.7 343.3,305 347.2,305 351,305 354.8,303.3 358.6,303.3 362.4,303.3 366.3,304.7 370.1,304.7 373.9,305 377.7,305 381.5,305 385.4,305 389.2,305 393,305 396.8,305 400.6,305 404.5,305 408.3,305 412.1,305 415.9,304.7 419.7,304.7 423.6,304.7 427.4,305 431.2,305 435,305 438.9,305 442.7,305 446.5,305 450.3,305 454.1,305 458,303.9 461.8,303.9 465.6,305 469.4,305 473.3,305 477.1,303.6 480.9,303.6 484.7,301.9 488.5,301.9 492.4,301.9 496.2,257.3 500,257.3 503.8,257.3 507.7,233.5 511.5,233.5 515.3,303 519.1,303 522.9,303 526.8,305 530.6,305 534.4,305 538.2,304.7 542.1,304.7 545.9,303 549.7,303 553.5,303 557.3,305 561.2,305 565,305 568.8,305 572.6,305 576.5,301.9 580.3,301.9 584.1,301.9 587.9,304.7 591.8,304.7 595.6,304.7 599.4,305 603.2,305 607,301.9 610.9,301.9 614.7,301.9 618.5,303 622.3,303 626.2,303 630,259 633.8,259 637.6,255.3 641.5,255.3 645.3,255.3 649.1,259.5 652.9,259.5 656.7,259.5 660.6,262.3 664.4,262.3 668.2,258.1 672,258.1 675.9,258.1 679.7,263.7 683.5,263.7 687.3,253.9 691.2,253.9 695,253.9 698.8,262.1 702.6,262.1 706.5,262.1 710.3,247.2 714.1,247.2 717.9,258.7 721.7,258.7 725.6,258.7 729.4,257.9 733.2,257.9 737,257.9 740.9,260.4 744.7,260.4 748.5,265.4 752.3,265.4 756.2,265.4 760,305.5 763.8,305.5 767.6,303.6 771.4,303.6 775.3,303.6 779.1,305.5 782.9,305.5 786.7,305.5 790.6,305.5 794.4,305.5 798.2,305.5 802,305.5 805.9,305.5 809.7,303.3 813.5,303.3 817.3,303.3 821.1,305.5 825,305.5 828.8,305.5 832.6,305.5 836.4,305.5 840.3,305.5 844.1,305.5 847.9,305.5 851.7,305.5 855.6,305.5 859.4,305.5 863.2,305.5 867,305.5 870.8,305.3 874.7,305.3 878.5,305.3 882.3,305.5 886.1,305.5 889.9,305.5 893.8,305.5 897.6,305.5 901.4,305 905.2,305 909,305.5 912.9,305.5 916.7,305.5 920.5,305.5 924.4,305.5 928.2,305.5 932,305.3"/><polyline fill="none" stroke="#d97706" stroke-width="2.5" stroke-dasharray="" points="156,333.6 159.8,330 163.7,334.4 167.5,331.3 171.3,334.2 175.2,329.1 179,333.3 182.8,328.5 186.6,333.8 190.4,328.7 194.3,333.5 198.1,329.5 201.9,333.8 205.7,330.8 209.5,334.5 213.4,330.3 217.2,333.6 221,329.6 224.8,333.8 228.6,329.6 232.5,333.6 236.3,335 240.1,333.9 244,330.4 247.8,334 251.6,329.8 255.4,333.1 259.2,330.1 263.1,333.8 266.9,330.2 270.7,333.4 274.5,330.1 278.3,333.3 282.2,330.2 286,333.5 289.8,330.4 293.6,333.5 297.5,329.8 301.3,334.5 305.1,329.4 308.9,333.7 312.7,330.1 316.6,333.8 320.4,330.8 324.2,333.4 328,330.1 331.8,333.8 335.7,330 339.5,333.5 343.3,330.2 347.2,333.8 351,330.8 354.8,333.1 358.6,330.5 362.4,333.8 366.3,329.8 370.1,333.8 373.9,330.6 377.7,333.8 381.5,330.8 385.4,333.3 389.2,330 393,333.8 396.8,330.5 400.6,333.5 404.5,330.1 408.3,333.5 412.1,330.5 415.9,334 419.7,329.8 423.6,333.7 427.4,329.9 431.2,333.8 435,330 438.9,333.4 442.7,330.5 446.5,333.5 450.3,330.4 454.1,332.7 458,326.9 461.8,334.3 465.6,335 469.4,334.4 473.3,331.6 477.1,333.7 480.9,332.7 484.7,334 488.5,331.8 492.4,333.6 496.2,329.1 500,333.3 503.8,317.2 507.7,317 511.5,328.1 515.3,333.9 519.1,333.8 522.9,333.4 526.8,334 530.6,331.4 534.4,333.8 538.2,333.6 542.1,333.6 545.9,331.3 549.7,329.3 553.5,332.3 557.3,329.4 561.2,332.7 565,326.7 568.8,332.5 572.6,326.6 576.5,333.4 580.3,332.4 584.1,333.4 587.9,335 591.8,332.6 595.6,332.2 599.4,333.7 603.2,332.6 607,333.6 610.9,331.1 614.7,332.6 618.5,334.6 622.3,333.6 626.2,332 630,332.3 633.8,331.9 637.6,333 641.5,330.8 645.3,331.5 649.1,331.2 652.9,332.2 656.7,331.3 660.6,334.8 664.4,332.1 668.2,332.2 672,332.2 675.9,332.8 679.7,332.7 683.5,329.6 687.3,330.9 691.2,333.6 695,332 698.8,331.3 702.6,331.6 706.5,332.3 710.3,331.3 714.1,332.5 717.9,331.2 721.7,331.8 725.6,332.2 729.4,332.2 733.2,332.7 737,332.1 740.9,333.1 744.7,333.2 748.5,332.9 752.3,332.7 756.2,331.4 760,331.7 763.8,331.8 767.6,333.5 771.4,334.4 775.3,333.5 779.1,334.7 782.9,333.6 786.7,333.1 790.6,333.9 794.4,333.3 798.2,334.1 802,334.4 805.9,334.5 809.7,333.6 813.5,333.9 817.3,333.6 821.1,333.5 825,334.5 828.8,334.1 832.6,334.8 836.4,334.2 840.3,334.8 844.1,333.7 847.9,334 851.7,333.6 855.6,333.2 859.4,332.9 863.2,333.9 867,333.7 870.8,333.5 874.7,333.4 878.5,333.3 882.3,333.6 886.1,333.5 889.9,333.7 893.8,333.5 897.6,333.2 901.4,333.5 905.2,333.5 909,334 912.9,333.5 916.7,333.5 920.5,334.2 924.4,332.9 928.2,333.9 932,333"/><polyline fill="none" stroke="#059669" stroke-width="2.5" stroke-dasharray="" points="159.8,282.4 163.7,282.3"/><polyline fill="none" stroke="#059669" stroke-width="2.5" stroke-dasharray="" points="171.3,282.4 175.2,282.9 179,282.4 182.8,282.2 186.6,281.7 190.4,281.8 194.3,281.5 198.1,281.5 201.9,281.4 205.7,281.3 209.5,281.8 213.4,282 217.2,282 221,282.2 224.8,282.1 228.6,282.2 232.5,282 236.3,282.4 240.1,282.2"/><polyline fill="none" stroke="#059669" stroke-width="2.5" stroke-dasharray="" points="247.8,282 251.6,282.4 255.4,282.7 259.2,282.7 263.1,282 266.9,282.1 270.7,282.1 274.5,282.1 278.3,282.2 282.2,282.1 286,282.2 289.8,282.1 293.6,282.1 297.5,282.1 301.3,282.1 305.1,282.1 308.9,282.2 312.7,282.2 316.6,282.1 320.4,282.2 324.2,282.3 328,282.4 331.8,282.2 335.7,282.4"/><polyline fill="none" stroke="#059669" stroke-width="2.5" stroke-dasharray="" points="343.3,282.2 347.2,282.6 351,282.9 354.8,282.6 358.6,282.6 362.4,282.1 366.3,281.8 370.1,281.9 373.9,282.1 377.7,281.8 381.5,281.9 385.4,281.8 389.2,281.9 393,281.9 396.8,281.9 400.6,281.8 404.5,281.9 408.3,281.8 412.1,281.8 415.9,281.8 419.7,281.9 423.6,281.8 427.4,281.9 431.2,281.9 435,281.9 438.9,281.9 442.7,281.8 446.5,281.8 450.3,281.9"/><polyline fill="none" stroke="#059669" stroke-width="2.5" stroke-dasharray="" points="458,282.1 461.8,281.9 465.6,281.9 469.4,281.7 473.3,281.8 477.1,281.6 480.9,281.6 484.7,281.7 488.5,281.8 492.4,281.7 496.2,300 500,285.1 503.8,172.8 507.7,145 511.5,281.8 515.3,280.9 519.1,280.8 522.9,280.8 526.8,280.9 530.6,280.8 534.4,280.5 538.2,280 542.1,280 545.9,279.9 549.7,280 553.5,280 557.3,280 561.2,279.6 565,279.9 568.8,279.6 572.6,279.5 576.5,279.6 580.3,279.5 584.1,280.1 587.9,279.2 591.8,279.1 595.6,279.2 599.4,279.2 603.2,289.1 607,279.2 610.9,278.5 614.7,278.8 618.5,278.4"/><polyline fill="none" stroke="#059669" stroke-width="2.5" stroke-dasharray="" points="626.2,320.1 630,323.2 633.8,314.2 637.6,323.5 641.5,323.6 645.3,322 649.1,276.8 652.9,269.5 656.7,271.5 660.6,274 664.4,275.9 668.2,277 672,276.2 675.9,275.7 679.7,273.4 683.5,275 687.3,274.7 691.2,277.6 695,275.9 698.8,275.5 702.6,275.7 706.5,275.9 710.3,277 714.1,275.5 717.9,276.3 721.7,276.8 725.6,274.6 729.4,273.4 733.2,274.6 737,276.7 740.9,273.6 744.7,274.3 748.5,273.6 752.3,271.9"/><polyline fill="none" stroke="#059669" stroke-width="2.5" stroke-dasharray="" points="760,246.7 763.8,229 767.6,229.2 771.4,229 775.3,244.5 779.1,283 782.9,282.7 786.7,282.5 790.6,282.4 794.4,282.1 798.2,282.2 802,282.2 805.9,282.3 809.7,282.2 813.5,282.7 817.3,282.4 821.1,282 825,281.9 828.8,282 832.6,282.2 836.4,281.9 840.3,282 844.1,282.1 847.9,282 851.7,282.1 855.6,282.3 859.4,281.9 863.2,281.9 867,281.8 870.8,281.8 874.7,281.9 878.5,282.9 882.3,282 886.1,281.8 889.9,282.1 893.8,281.7 897.6,281.7 901.4,281.4 905.2,281.5 909,281.4 912.9,281.5 916.7,281.4 920.5,281.5 924.4,281.4"/><polyline fill="none" stroke="#7c3aed" stroke-width="2.5" stroke-dasharray="" points="159.8,282.5 163.7,282.5"/><polyline fill="none" stroke="#7c3aed" stroke-width="2.5" stroke-dasharray="" points="171.3,282.5 175.2,282.5 179,282.5 182.8,282.5 186.6,282.5 190.4,282.5 194.3,282.5 198.1,282.5 201.9,282.5 205.7,282.5 209.5,282.5 213.4,282.5 217.2,282.5 221,282.5 224.8,282.5 228.6,282.5 232.5,282.5 236.3,282.5 240.1,282.5"/><polyline fill="none" stroke="#7c3aed" stroke-width="2.5" stroke-dasharray="" points="247.8,282.5 251.6,282.5 255.4,282.5 259.2,282.5 263.1,282.5 266.9,282.5 270.7,282.5 274.5,282.5 278.3,282.5 282.2,282.5 286,282.5 289.8,282.5 293.6,282.5 297.5,282.5 301.3,282.5 305.1,282.5 308.9,282.5 312.7,282.5 316.6,282.5 320.4,282.5 324.2,282.5 328,282.5 331.8,282.5 335.7,282.5"/><polyline fill="none" stroke="#7c3aed" stroke-width="2.5" stroke-dasharray="" points="343.3,282.5 347.2,282.5 351,282.5 354.8,282.5 358.6,282.5 362.4,282.5 366.3,282.5 370.1,282.5 373.9,282.5 377.7,282.5 381.5,282.5 385.4,282.5 389.2,282.5 393,282.5 396.8,282.5 400.6,282.5 404.5,282.5 408.3,282.5 412.1,282.5 415.9,282.5 419.7,282.5 423.6,282.5 427.4,282.5 431.2,282.5 435,282.5 438.9,282.5 442.7,282.5 446.5,282.5 450.3,282.5"/><polyline fill="none" stroke="#7c3aed" stroke-width="2.5" stroke-dasharray="" points="458,282.5 461.8,282.5 465.6,282.5 469.4,282.5 473.3,282.5 477.1,282.5 480.9,282.5 484.7,282.5 488.5,282.5 492.4,282.5 496.2,282.5 500,282.5 503.8,282.5 507.7,282.8 511.5,282.8 515.3,282.8 519.1,282.8 522.9,282.8 526.8,282.8 530.6,282.8 534.4,282.8 538.2,282.6 542.1,282.5 545.9,282.5 549.7,282.5 553.5,282.5 557.3,282.5 561.2,282.5 565,282.5 568.8,282.5 572.6,282.5 576.5,282.5 580.3,282.5 584.1,282.5 587.9,282.5 591.8,282.6 595.6,282.8 599.4,282.8 603.2,282.8 607,282.8 610.9,282.8 614.7,282.8 618.5,282.8"/><polyline fill="none" stroke="#7c3aed" stroke-width="2.5" stroke-dasharray="" points="626.2,282.8 630,282.8 633.8,282.8 637.6,282.8 641.5,282.8 645.3,282.8 649.1,282.8 652.9,282.8 656.7,282.8 660.6,282.8 664.4,282.8 668.2,282.8 672,282.8 675.9,282.8 679.7,282.8 683.5,282.8 687.3,282.8 691.2,282.8 695,282.8 698.8,282.8 702.6,282.8 706.5,282.8 710.3,282.8 714.1,282.8 717.9,282.8 721.7,282.8 725.6,282.8 729.4,282.8 733.2,282.8 737,282.8 740.9,282.8 744.7,282.8 748.5,282.8 752.3,282.8"/><polyline fill="none" stroke="#7c3aed" stroke-width="2.5" stroke-dasharray="" points="760,282.8 763.8,282.8 767.6,282.8 771.4,282.8 775.3,282.8 779.1,282.8 782.9,282.8 786.7,282.8 790.6,282.6 794.4,282.5 798.2,282.5 802,282.5 805.9,282.5 809.7,282.5 813.5,282.5 817.3,282.5 821.1,282.5 825,282.5 828.8,282.5 832.6,282.5 836.4,282.5 840.3,282.5 844.1,282.5 847.9,282.5 851.7,282.5 855.6,282.5 859.4,282.5 863.2,282.5 867,282.5 870.8,282.5 874.7,282.5 878.5,282.5 882.3,282.5 886.1,282.5 889.9,282.5 893.8,282.5 897.6,282.5 901.4,282.5 905.2,282.5 909,282.5 912.9,282.5 916.7,282.5 920.5,282.5 924.4,282.5"/><line x1="166" y1="86" x2="190" y2="86" stroke="#2563eb" stroke-width="3"/><text x="197" y="91" font-size="13" fill="#111827">RTT</text><line x1="356" y1="86" x2="380" y2="86" stroke="#d97706" stroke-width="3"/><text x="387" y="91" font-size="13" fill="#111827">Pacer queue</text><line x1="546" y1="86" x2="570" y2="86" stroke="#059669" stroke-width="3"/><text x="577" y="91" font-size="13" fill="#111827">Effective buffer</text><line x1="736" y1="86" x2="760" y2="86" stroke="#7c3aed" stroke-width="3"/><text x="767" y="91" font-size="13" fill="#111827">Target buffer</text><line x1="156" y1="515" x2="932" y2="515" stroke="#cbd5e1"/><text x="144" y="393" text-anchor="end" font-size="14" font-weight="600" fill="#111827">NACK / RTX</text><text x="144" y="413" text-anchor="end" font-size="13" fill="#64748b">packets</text><line x1="156" y1="375" x2="932" y2="375" stroke="#e2e8f0" stroke-width="1"/><text x="927" y="371" text-anchor="end" font-size="12" fill="#64748b">148 packets</text><line x1="156" y1="445" x2="932" y2="445" stroke="#e2e8f0" stroke-width="1"/><text x="927" y="441" text-anchor="end" font-size="12" fill="#64748b">74 packets</text><line x1="156" y1="515" x2="932" y2="515" stroke="#e2e8f0" stroke-width="1"/><text x="927" y="511" text-anchor="end" font-size="12" fill="#64748b">0 packets</text><rect x="496" y="463.9" width="4" height="51.1" fill="#dc2626" opacity="0.82"/><rect x="499.8" y="375" width="4" height="140" fill="#dc2626" opacity="0.82"/><rect x="503.7" y="473.4" width="4" height="41.6" fill="#dc2626" opacity="0.82"/><rect x="622.2" y="512.2" width="4" height="2.8" fill="#dc2626" opacity="0.82"/><rect x="626" y="508.4" width="4" height="6.6" fill="#dc2626" opacity="0.82"/><rect x="629.8" y="506.5" width="4" height="8.5" fill="#dc2626" opacity="0.82"/><rect x="633.6" y="512.2" width="4" height="2.8" fill="#dc2626" opacity="0.82"/><rect x="637.5" y="513.1" width="4" height="1.9" fill="#dc2626" opacity="0.82"/><rect x="641.3" y="513.1" width="4" height="1.9" fill="#dc2626" opacity="0.82"/><rect x="645.1" y="508.4" width="4" height="6.6" fill="#dc2626" opacity="0.82"/><rect x="648.9" y="501.8" width="4" height="13.2" fill="#dc2626" opacity="0.82"/><rect x="652.7" y="501.8" width="4" height="13.2" fill="#dc2626" opacity="0.82"/><rect x="656.6" y="512.2" width="4" height="2.8" fill="#dc2626" opacity="0.82"/><rect x="660.4" y="513.1" width="4" height="1.9" fill="#dc2626" opacity="0.82"/><rect x="664.2" y="512.2" width="4" height="2.8" fill="#dc2626" opacity="0.82"/><rect x="668" y="512.2" width="4" height="2.8" fill="#dc2626" opacity="0.82"/><rect x="671.9" y="508.4" width="4" height="6.6" fill="#dc2626" opacity="0.82"/><rect x="675.7" y="511.2" width="4" height="3.8" fill="#dc2626" opacity="0.82"/><rect x="679.5" y="511.2" width="4" height="3.8" fill="#dc2626" opacity="0.82"/><rect x="683.3" y="507.4" width="4" height="7.6" fill="#dc2626" opacity="0.82"/><rect x="687.2" y="512.2" width="4" height="2.8" fill="#dc2626" opacity="0.82"/><rect x="691" y="511.2" width="4" height="3.8" fill="#dc2626" opacity="0.82"/><rect x="694.8" y="511.2" width="4" height="3.8" fill="#dc2626" opacity="0.82"/><rect x="698.6" y="504.6" width="4" height="10.4" fill="#dc2626" opacity="0.82"/><rect x="702.5" y="511.2" width="4" height="3.8" fill="#dc2626" opacity="0.82"/><rect x="706.3" y="505.5" width="4" height="9.5" fill="#dc2626" opacity="0.82"/><rect x="710.1" y="509.3" width="4" height="5.7" fill="#dc2626" opacity="0.82"/><rect x="713.9" y="507.4" width="4" height="7.6" fill="#dc2626" opacity="0.82"/><rect x="717.7" y="511.2" width="4" height="3.8" fill="#dc2626" opacity="0.82"/><rect x="721.6" y="509.3" width="4" height="5.7" fill="#dc2626" opacity="0.82"/><rect x="725.4" y="505.5" width="4" height="9.5" fill="#dc2626" opacity="0.82"/><rect x="729.2" y="510.3" width="4" height="4.7" fill="#dc2626" opacity="0.82"/><rect x="733" y="511.2" width="4" height="3.8" fill="#dc2626" opacity="0.82"/><rect x="736.9" y="511.2" width="4" height="3.8" fill="#dc2626" opacity="0.82"/><rect x="740.7" y="513.1" width="4" height="1.9" fill="#dc2626" opacity="0.82"/><rect x="744.5" y="504.6" width="4" height="10.4" fill="#dc2626" opacity="0.82"/><rect x="748.3" y="510.3" width="4" height="4.7" fill="#dc2626" opacity="0.82"/><rect x="500" y="500.8" width="4" height="14.2" fill="#2563eb" opacity="0.82"/><rect x="503.8" y="428.9" width="4" height="86.1" fill="#2563eb" opacity="0.82"/><rect x="507.7" y="392" width="4" height="123" fill="#2563eb" opacity="0.82"/><rect x="626.2" y="512.2" width="4" height="2.8" fill="#2563eb" opacity="0.82"/><rect x="630" y="510.3" width="4" height="4.7" fill="#2563eb" opacity="0.82"/><rect x="633.8" y="509.3" width="4" height="5.7" fill="#2563eb" opacity="0.82"/><rect x="637.6" y="510.3" width="4" height="4.7" fill="#2563eb" opacity="0.82"/><rect x="641.5" y="514.1" width="4" height="0.9" fill="#2563eb" opacity="0.82"/><rect x="645.3" y="512.2" width="4" height="2.8" fill="#2563eb" opacity="0.82"/><rect x="649.1" y="513.1" width="4" height="1.9" fill="#2563eb" opacity="0.82"/><rect x="652.9" y="506.5" width="4" height="8.5" fill="#2563eb" opacity="0.82"/><rect x="656.7" y="505.5" width="4" height="9.5" fill="#2563eb" opacity="0.82"/><rect x="660.6" y="508.4" width="4" height="6.6" fill="#2563eb" opacity="0.82"/><rect x="664.4" y="514.1" width="4" height="0.9" fill="#2563eb" opacity="0.82"/><rect x="668.2" y="511.2" width="4" height="3.8" fill="#2563eb" opacity="0.82"/><rect x="672" y="513.1" width="4" height="1.9" fill="#2563eb" opacity="0.82"/><rect x="675.9" y="510.3" width="4" height="4.7" fill="#2563eb" opacity="0.82"/><rect x="679.7" y="508.4" width="4" height="6.6" fill="#2563eb" opacity="0.82"/><rect x="683.5" y="511.2" width="4" height="3.8" fill="#2563eb" opacity="0.82"/><rect x="687.3" y="508.4" width="4" height="6.6" fill="#2563eb" opacity="0.82"/><rect x="691.2" y="512.2" width="4" height="2.8" fill="#2563eb" opacity="0.82"/><rect x="695" y="513.1" width="4" height="1.9" fill="#2563eb" opacity="0.82"/><rect x="698.8" y="509.3" width="4" height="5.7" fill="#2563eb" opacity="0.82"/><rect x="702.6" y="505.5" width="4" height="9.5" fill="#2563eb" opacity="0.82"/><rect x="706.5" y="509.3" width="4" height="5.7" fill="#2563eb" opacity="0.82"/><rect x="710.3" y="508.4" width="4" height="6.6" fill="#2563eb" opacity="0.82"/><rect x="714.1" y="509.3" width="4" height="5.7" fill="#2563eb" opacity="0.82"/><rect x="717.9" y="506.5" width="4" height="8.5" fill="#2563eb" opacity="0.82"/><rect x="721.7" y="510.3" width="4" height="4.7" fill="#2563eb" opacity="0.82"/><rect x="725.6" y="510.3" width="4" height="4.7" fill="#2563eb" opacity="0.82"/><rect x="729.4" y="510.3" width="4" height="4.7" fill="#2563eb" opacity="0.82"/><rect x="733.2" y="506.5" width="4" height="8.5" fill="#2563eb" opacity="0.82"/><rect x="737" y="511.2" width="4" height="3.8" fill="#2563eb" opacity="0.82"/><rect x="740.9" y="511.2" width="4" height="3.8" fill="#2563eb" opacity="0.82"/><rect x="744.7" y="513.1" width="4" height="1.9" fill="#2563eb" opacity="0.82"/><rect x="748.5" y="510.3" width="4" height="4.7" fill="#2563eb" opacity="0.82"/><rect x="752.3" y="504.6" width="4" height="10.4" fill="#2563eb" opacity="0.82"/><line x1="166" y1="400" x2="190" y2="400" stroke="#dc2626" stroke-width="3"/><text x="197" y="405" font-size="13" fill="#111827">NACK</text><line x1="356" y1="400" x2="380" y2="400" stroke="#2563eb" stroke-width="3"/><text x="387" y="405" font-size="13" fill="#111827">RTX received</text><line x1="156" y1="660" x2="932" y2="660" stroke="#cbd5e1"/><text x="144" y="573" text-anchor="end" font-size="14" font-weight="600" fill="#111827">FlexFEC received</text><text x="144" y="593" text-anchor="end" font-size="13" fill="#64748b">packets</text><line x1="156" y1="555" x2="932" y2="555" stroke="#e2e8f0" stroke-width="1"/><text x="927" y="551" text-anchor="end" font-size="12" fill="#64748b">179 packets</text><line x1="156" y1="607.5" x2="932" y2="607.5" stroke="#e2e8f0" stroke-width="1"/><text x="927" y="603.5" text-anchor="end" font-size="12" fill="#64748b">90 packets</text><line x1="156" y1="660" x2="932" y2="660" stroke="#e2e8f0" stroke-width="1"/><text x="927" y="656" text-anchor="end" font-size="12" fill="#64748b">0 packets</text><polyline fill="none" stroke="#059669" stroke-width="2.5" stroke-dasharray="" points="159.8,575.5 163.7,579.6"/><polyline fill="none" stroke="#059669" stroke-width="2.5" stroke-dasharray="" points="171.3,579.6 175.2,560.9 179,564.4 182.8,558.5 186.6,564.4 190.4,559.1 194.3,556.8 198.1,558.5 201.9,590.2 205.7,591.4 209.5,593.7 213.4,568.5 217.2,570.8 221,566.7 224.8,571.4 228.6,567.3 232.5,573.2 236.3,567.9 240.1,571.4"/><polyline fill="none" stroke="#059669" stroke-width="2.5" stroke-dasharray="" points="247.8,572 251.6,569.1 255.4,573.2 259.2,566.7 263.1,571.4 266.9,565.6 270.7,571.4 274.5,565.6 278.3,572 282.2,569.1 286,571.4 289.8,567.3 293.6,572.6 297.5,566.1 301.3,573.8 305.1,569.1 308.9,572.6 312.7,566.1 316.6,572.6 320.4,566.1 324.2,573.2 328,567.3 331.8,573.8 335.7,565.6"/><polyline fill="none" stroke="#059669" stroke-width="2.5" stroke-dasharray="" points="343.3,563.2 347.2,572 351,568.5 354.8,573.2 358.6,568.5 362.4,572 366.3,563.8 370.1,573.8 373.9,566.1 377.7,573.2 381.5,569.7 385.4,573.2 389.2,565.6 393,571.4 396.8,569.7 400.6,572.6 404.5,566.7 408.3,573.2 412.1,569.1 415.9,571.4 419.7,564.4 423.6,573.2 427.4,567.9 431.2,572.6 435,568.5 438.9,570.8 442.7,566.7 446.5,572 450.3,570.3"/><polyline fill="none" stroke="#059669" stroke-width="2.5" stroke-dasharray="" points="458,603.1 461.8,601.3 465.6,596.6 469.4,593.1 473.3,587.3 477.1,583.7 480.9,574.9 484.7,577.3 488.5,572 492.4,577.3 496.2,575.5 500,576.1 503.8,597.2 507.7,600.8 511.5,628.3 515.3,626 519.1,626.6 522.9,624.8 526.8,626.6 530.6,624.2 534.4,626 538.2,625.4 542.1,625.4 545.9,624.8 549.7,624.8 553.5,624.2 557.3,625.4 561.2,624.8 565,625.4 568.8,624.8 572.6,624.8 576.5,626.6 580.3,624.8 584.1,625.4 587.9,624.8 591.8,624.8 595.6,625.4 599.4,634.2 603.2,614.8 607,623.6 610.9,623.6 614.7,623 618.5,623.6"/><polyline fill="none" stroke="#059669" stroke-width="2.5" stroke-dasharray="" points="626.2,628.3 630,626 633.8,626 637.6,628.3 641.5,625.4 645.3,628.9 649.1,624.2 652.9,626.6 656.7,624.8 660.6,628.3 664.4,624.8 668.2,628.3 672,624.2 675.9,624.2 679.7,628.3 683.5,624.8 687.3,625.4 691.2,625.4 695,627.7 698.8,627.2 702.6,624.8 706.5,626.6 710.3,625.4 714.1,627.2 717.9,626 721.7,625.4 725.6,628.9 729.4,626.6 733.2,624.8 737,628.3 740.9,626 744.7,628.3 748.5,624.8 752.3,627.7"/><polyline fill="none" stroke="#059669" stroke-width="2.5" stroke-dasharray="" points="760,621.3 763.8,624.2 767.6,626.6 771.4,626 775.3,624.8 779.1,625.4 782.9,625.4 786.7,626 790.6,622.5 794.4,621.3 798.2,619.5 802,620.7 805.9,616 809.7,613.1 813.5,608.4 817.3,609.6 821.1,606 825,609.6 828.8,596.6 832.6,596.1 836.4,595.5 840.3,596.6 844.1,574.9 847.9,571.4 851.7,562.6 855.6,562.6 859.4,555 863.2,562.6 867,557.3 870.8,562.6 874.7,555 878.5,562.6 882.3,560.9 886.1,566.1 889.9,574.4 893.8,586.7 897.6,591.4 901.4,587.8 905.2,592 909,586.7 912.9,592.5 916.7,586.7 920.5,591.4 924.4,586.7"/><line x1="156" y1="780" x2="932" y2="780" stroke="#cbd5e1"/><text x="144" y="718" text-anchor="end" font-size="14" font-weight="600" fill="#111827">Injected / TWCC loss</text><text x="144" y="738" text-anchor="end" font-size="13" fill="#64748b">%</text><line x1="156" y1="700" x2="932" y2="700" stroke="#e2e8f0" stroke-width="1"/><text x="927" y="696" text-anchor="end" font-size="12" fill="#64748b">34 %</text><line x1="156" y1="740" x2="932" y2="740" stroke="#e2e8f0" stroke-width="1"/><text x="927" y="736" text-anchor="end" font-size="12" fill="#64748b">17 %</text><line x1="156" y1="780" x2="932" y2="780" stroke="#e2e8f0" stroke-width="1"/><text x="927" y="776" text-anchor="end" font-size="12" fill="#64748b">0 %</text><polyline fill="none" stroke="#dc2626" stroke-width="2.5" stroke-dasharray="8 6" points="339.5,780 343.3,780 347.2,780 351,780 354.8,780 358.6,780 362.4,780 366.3,780 370.1,780 373.9,780 377.7,780 381.5,780 385.4,780 389.2,780 393,780 396.8,780 400.6,780 404.5,780 408.3,780 412.1,780 415.9,780 419.7,780 423.6,780 427.4,780 431.2,780 435,780 438.9,780 442.7,780 446.5,780 450.3,780 454.1,780 458,780 461.8,780 465.6,780 469.4,780 473.3,780 477.1,780 480.9,780 484.7,780 488.5,780 492.4,780 496.2,780 500,780 503.8,780 507.7,780 511.5,780 515.3,780 519.1,780 522.9,780 526.8,780 530.6,780 534.4,780 538.2,780 542.1,780 545.9,780 549.7,780 553.5,780 557.3,780 561.2,780 565,780 568.8,780 572.6,780 576.5,780 580.3,780 584.1,780 587.9,780 591.8,780 595.6,780 599.4,780 603.2,780 607,780 610.9,780 614.7,780 618.5,780 622.3,775.3 626.2,775.3 630,775.3 633.8,775.3 637.6,775.3 641.5,775.3 645.3,775.3 649.1,775.3 652.9,775.3 656.7,775.3 660.6,775.3 664.4,775.3 668.2,775.3 672,775.3 675.9,775.3 679.7,775.3 683.5,775.3 687.3,775.3 691.2,775.3 695,775.3 698.8,775.3 702.6,775.3 706.5,775.3 710.3,775.3 714.1,775.3 717.9,775.3 721.7,775.3 725.6,775.3 729.4,775.3 733.2,775.3 737,775.3 740.9,775.3 744.7,775.3 748.5,775.3 752.3,775.3 756.2,780 760,780 763.8,780 767.6,780 771.4,780 775.3,780 779.1,780 782.9,780 786.7,780 790.6,780 794.4,780 798.2,780 802,780 805.9,780 809.7,780 813.5,780 817.3,780 821.1,780 825,780 828.8,780 832.6,780 836.4,780 840.3,780 844.1,780 847.9,780 851.7,780 855.6,780 859.4,780 863.2,780 867,780 870.8,780 874.7,780 878.5,780 882.3,780 886.1,780 889.9,780 893.8,780 897.6,780 901.4,780 905.2,780 909,780 912.9,780 916.7,780 920.5,780 924.4,780 928.2,780 932,780"/><polyline fill="none" stroke="#7c3aed" stroke-width="2.5" stroke-dasharray="" points="159.8,780 163.7,780"/><polyline fill="none" stroke="#7c3aed" stroke-width="2.5" stroke-dasharray="" points="171.3,780 175.2,780 179,780 182.8,780 186.6,780 190.4,780 194.3,780 198.1,780 201.9,780 205.7,780 209.5,780 213.4,780 217.2,780 221,780 224.8,780 228.6,780 232.5,780 236.3,780 240.1,780"/><polyline fill="none" stroke="#7c3aed" stroke-width="2.5" stroke-dasharray="" points="247.8,780 251.6,780 255.4,780 259.2,780 263.1,780 266.9,780 270.7,780 274.5,780 278.3,780 282.2,780 286,780 289.8,780 293.6,780 297.5,780 301.3,780 305.1,780 308.9,780 312.7,780 316.6,780 320.4,780 324.2,780 328,780 331.8,780 335.7,780"/><polyline fill="none" stroke="#7c3aed" stroke-width="2.5" stroke-dasharray="" points="343.3,780 347.2,780 351,780 354.8,780 358.6,780 362.4,780 366.3,780 370.1,780 373.9,780 377.7,780 381.5,780 385.4,780 389.2,780 393,780 396.8,780 400.6,780 404.5,780 408.3,780 412.1,780 415.9,780 419.7,780 423.6,780 427.4,780 431.2,780 435,780 438.9,780 442.7,780 446.5,780 450.3,780"/><polyline fill="none" stroke="#7c3aed" stroke-width="2.5" stroke-dasharray="" points="458,780 461.8,780 465.6,780 469.4,780 473.3,780 477.1,780 480.9,780 484.7,780 488.5,780 492.4,780 496.2,780 500,780 503.8,735.9 507.7,700 511.5,733.8 515.3,780 519.1,780 522.9,780 526.8,780 530.6,780 534.4,780 538.2,780 542.1,780 545.9,780 549.7,780 553.5,780 557.3,780 561.2,780 565,780 568.8,780 572.6,780 576.5,780 580.3,780 584.1,780 587.9,780 591.8,780 595.6,780 599.4,780 603.2,780 607,780 610.9,780 614.7,780 618.5,780"/><polyline fill="none" stroke="#7c3aed" stroke-width="2.5" stroke-dasharray="" points="626.2,780 630,774.6 633.8,775.8 637.6,772.3 641.5,774.8 645.3,777.6 649.1,778.4 652.9,773.2 656.7,763.7 660.6,768.8 664.4,770.1 668.2,775 672,778.5 675.9,776.1 679.7,773.8 683.5,774.4 687.3,777.7 691.2,772.8 695,777.7 698.8,773.6 702.6,776.1 706.5,771.9 710.3,775.8 714.1,772.2 717.9,775.1 721.7,772.5 725.6,776.8 729.4,775 733.2,769.9 737,775.3 740.9,776 744.7,776.7 748.5,777.6 752.3,772.5"/><polyline fill="none" stroke="#7c3aed" stroke-width="2.5" stroke-dasharray="" points="760,769.2 763.8,780 767.6,780 771.4,780 775.3,780 779.1,780 782.9,780 786.7,780 790.6,780 794.4,780 798.2,780 802,780 805.9,780 809.7,780 813.5,780 817.3,780 821.1,780 825,780 828.8,780 832.6,780 836.4,780 840.3,780 844.1,780 847.9,780 851.7,780 855.6,780 859.4,780 863.2,780 867,780 870.8,780 874.7,780 878.5,780 882.3,780 886.1,780 889.9,780 893.8,780 897.6,780 901.4,780 905.2,780 909,780 912.9,780 916.7,780 920.5,780 924.4,780"/><line x1="166" y1="722" x2="190" y2="722" stroke="#dc2626" stroke-width="3"/><text x="197" y="727" font-size="13" fill="#111827">Configured</text><line x1="356" y1="722" x2="380" y2="722" stroke="#7c3aed" stroke-width="3"/><text x="387" y="727" font-size="13" fill="#111827">TWCC observed</text>
<line x1="156" y1="785" x2="932" y2="785" stroke="#111827"/>
<line x1="156" y1="785" x2="156" y2="791" stroke="#111827"/><text x="156" y="807" text-anchor="middle" font-size="12" fill="#4b5563">0 s</text><line x1="311.2" y1="785" x2="311.2" y2="791" stroke="#111827"/><text x="311.2" y="807" text-anchor="middle" font-size="12" fill="#4b5563">41 s</text><line x1="466.4" y1="785" x2="466.4" y2="791" stroke="#111827"/><text x="466.4" y="807" text-anchor="middle" font-size="12" fill="#4b5563">82 s</text><line x1="621.6" y1="785" x2="621.6" y2="791" stroke="#111827"/><text x="621.6" y="807" text-anchor="middle" font-size="12" fill="#4b5563">122 s</text><line x1="776.8" y1="785" x2="776.8" y2="791" stroke="#111827"/><text x="776.8" y="807" text-anchor="middle" font-size="12" fill="#4b5563">163 s</text><line x1="932" y1="785" x2="932" y2="791" stroke="#111827"/><text x="932" y="807" text-anchor="middle" font-size="12" fill="#4b5563">204 s</text>
<text x="480" y="832" text-anchor="middle" font-size="12" fill="#64748b">Buffer trace is per sample; its gate is per phase. Counters are per-sample deltas.</text>
</svg>
